<svg width="12" height="14" viewBox="0 0 12 14" fill="none" xmlns="http://www.w3.org/2000/svg">
<path fill-rule="evenodd" clip-rule="evenodd" d="M0 1C0 0.447716 0.447715 0 1 0H8.58579C8.851 0 9.10536 0.105357 9.29289 0.292893L11.7071 2.70711C11.8946 2.89464 12 3.149 12 3.41421V13C12 13.5523 11.5523 14 11 14H1C0.447715 14 0 13.5523 0 13V1Z" fill="white"/>
<path fill-rule="evenodd" clip-rule="evenodd" d="M5.00391 8.80469L4.63477 10H2.98682L5.3335 3.60156H6.78369L9.14795 10H7.49121L7.11768 8.80469H5.00391ZM5.37305 7.61377H6.74854L6.05859 5.39453L5.37305 7.61377Z" fill="#8D40FF"/>
</svg>
